<svg width="208" height="19" viewBox="0 0 208 19" fill="none" xmlns="http://www.w3.org/2000/svg">
<path d="M8.58388 18.12C7.91188 18.12 7.36788 17.928 6.95188 17.544C6.55188 17.144 6.35188 16.616 6.35188 15.96V4.65597H2.96788C2.26388 4.65597 1.73588 4.51197 1.38388 4.22397C1.04788 3.91997 0.879883 3.46397 0.879883 2.85597C0.879883 2.24797 1.04788 1.79997 1.38388 1.51197C1.73588 1.22397 2.26388 1.07997 2.96788 1.07997H14.1999C14.9039 1.07997 15.4239 1.22397 15.7599 1.51197C16.1119 1.79997 16.2879 2.24797 16.2879 2.85597C16.2879 3.46397 16.1119 3.91997 15.7599 4.22397C15.4239 4.51197 14.9039 4.65597 14.1999 4.65597H10.8159V15.96C10.8159 16.616 10.6079 17.144 10.1919 17.544C9.79188 17.928 9.25588 18.12 8.58388 18.12Z" fill="#FF5678"/>
<path d="M25.4519 5.90397C26.8279 5.90397 27.8519 6.32797 28.5239 7.17597C29.1959 8.00797 29.5319 9.27997 29.5319 10.992V16.176C29.5319 16.784 29.3399 17.264 28.9559 17.616C28.5719 17.968 28.0519 18.144 27.3959 18.144C26.7399 18.144 26.2199 17.968 25.8359 17.616C25.4519 17.264 25.2599 16.784 25.2599 16.176V10.896C25.2599 9.74397 24.7639 9.16797 23.7719 9.16797C23.1319 9.16797 22.6199 9.37597 22.2359 9.79197C21.8679 10.192 21.6839 10.736 21.6839 11.424V16.176C21.6839 16.784 21.4919 17.264 21.1079 17.616C20.7239 17.968 20.2039 18.144 19.5479 18.144C18.8919 18.144 18.3719 17.968 17.9879 17.616C17.6039 17.264 17.4119 16.784 17.4119 16.176V2.87997C17.4119 2.31997 17.6119 1.86397 18.0119 1.51197C18.4119 1.14397 18.9399 0.959969 19.5959 0.959969C20.2199 0.959969 20.7239 1.12797 21.1079 1.46397C21.4919 1.79997 21.6839 2.24797 21.6839 2.80797V7.60797C22.1159 7.04797 22.6519 6.62397 23.2919 6.33597C23.9319 6.04797 24.6519 5.90397 25.4519 5.90397Z" fill="#FF5678"/>
<path d="M41.5432 14.208C41.9112 14.208 42.2072 14.352 42.4312 14.64C42.6712 14.928 42.7912 15.304 42.7912 15.768C42.7912 16.408 42.4792 16.896 41.8552 17.232C41.3112 17.504 40.6632 17.736 39.9112 17.928C39.1752 18.104 38.4952 18.192 37.8712 18.192C36.5592 18.192 35.4152 17.944 34.4392 17.448C33.4632 16.952 32.7112 16.24 32.1832 15.312C31.6552 14.384 31.3912 13.296 31.3912 12.048C31.3912 10.864 31.6392 9.80797 32.1352 8.87997C32.6472 7.93597 33.3512 7.20797 34.2472 6.69597C35.1592 6.16797 36.1832 5.90397 37.3192 5.90397C38.4232 5.90397 39.3912 6.14397 40.2232 6.62397C41.0552 7.10397 41.6952 7.78397 42.1432 8.66397C42.6072 9.54397 42.8392 10.576 42.8392 11.76C42.8392 12.128 42.7512 12.416 42.5752 12.624C42.4152 12.816 42.1752 12.912 41.8552 12.912H35.5192C35.6312 13.68 35.8792 14.232 36.2632 14.568C36.6472 14.904 37.2152 15.072 37.9672 15.072C38.3672 15.072 38.7352 15.032 39.0712 14.952C39.4072 14.856 39.7832 14.728 40.1992 14.568C40.4392 14.472 40.6712 14.392 40.8952 14.328C41.1352 14.248 41.3512 14.208 41.5432 14.208ZM37.4392 8.78397C36.8792 8.78397 36.4312 8.96797 36.0952 9.33597C35.7592 9.68797 35.5592 10.208 35.4952 10.896H39.2632C39.1672 9.48797 38.5592 8.78397 37.4392 8.78397Z" fill="#FF5678"/>
<path d="M63.2941 9.21597C64.2861 9.51997 65.0461 10.032 65.5741 10.752C66.1021 11.456 66.3661 12.328 66.3661 13.368C66.3661 14.296 66.1181 15.112 65.6221 15.816C65.1421 16.504 64.4461 17.04 63.5341 17.424C62.6381 17.808 61.5821 18 60.3661 18H53.9821C53.3261 18 52.8221 17.824 52.4701 17.472C52.1181 17.12 51.9421 16.616 51.9421 15.96V3.11997C51.9421 2.46397 52.1181 1.95997 52.4701 1.60797C52.8221 1.25597 53.3261 1.07997 53.9821 1.07997H60.1261C61.9021 1.07997 63.3101 1.47997 64.3501 2.27997C65.4061 3.06397 65.9341 4.12797 65.9341 5.47197C65.9341 6.33597 65.7021 7.10397 65.2381 7.77597C64.7741 8.43197 64.1261 8.91197 63.2941 9.21597ZM56.2381 7.72797H59.3821C60.2141 7.72797 60.8221 7.59997 61.2061 7.34397C61.5901 7.08797 61.7821 6.67997 61.7821 6.11997C61.7821 5.52797 61.5901 5.09597 61.2061 4.82397C60.8221 4.55197 60.2141 4.41597 59.3821 4.41597H56.2381V7.72797ZM59.8141 14.664C60.6941 14.664 61.3181 14.528 61.6861 14.256C62.0701 13.968 62.2621 13.504 62.2621 12.864C62.2621 12.224 62.0701 11.768 61.6861 11.496C61.3181 11.208 60.6941 11.064 59.8141 11.064H56.2381V14.664H59.8141Z" fill="#FF5678"/>
<path d="M77.9416 14.208C78.3096 14.208 78.6056 14.352 78.8296 14.64C79.0696 14.928 79.1896 15.304 79.1896 15.768C79.1896 16.408 78.8776 16.896 78.2536 17.232C77.7096 17.504 77.0616 17.736 76.3096 17.928C75.5736 18.104 74.8936 18.192 74.2696 18.192C72.9576 18.192 71.8136 17.944 70.8376 17.448C69.8616 16.952 69.1096 16.24 68.5816 15.312C68.0536 14.384 67.7896 13.296 67.7896 12.048C67.7896 10.864 68.0376 9.80797 68.5336 8.87997C69.0456 7.93597 69.7496 7.20797 70.6456 6.69597C71.5576 6.16797 72.5816 5.90397 73.7176 5.90397C74.8216 5.90397 75.7896 6.14397 76.6216 6.62397C77.4536 7.10397 78.0936 7.78397 78.5416 8.66397C79.0056 9.54397 79.2376 10.576 79.2376 11.76C79.2376 12.128 79.1496 12.416 78.9736 12.624C78.8136 12.816 78.5736 12.912 78.2536 12.912H71.9176C72.0296 13.68 72.2776 14.232 72.6616 14.568C73.0456 14.904 73.6136 15.072 74.3656 15.072C74.7656 15.072 75.1336 15.032 75.4696 14.952C75.8056 14.856 76.1816 14.728 76.5976 14.568C76.8376 14.472 77.0696 14.392 77.2936 14.328C77.5336 14.248 77.7496 14.208 77.9416 14.208ZM73.8376 8.78397C73.2776 8.78397 72.8296 8.96797 72.4936 9.33597C72.1576 9.68797 71.9576 10.208 71.8936 10.896H75.6616C75.5656 9.48797 74.9576 8.78397 73.8376 8.78397Z" fill="#FF5678"/>
<path d="M86.6814 5.90397C88.5054 5.90397 89.8494 6.34397 90.7134 7.22397C91.5934 8.08797 92.0334 9.40797 92.0334 11.184V16.2C92.0334 16.808 91.8494 17.288 91.4814 17.64C91.1294 17.976 90.6334 18.144 89.9934 18.144C89.4334 18.144 88.9694 17.984 88.6014 17.664C88.2494 17.344 88.0574 16.912 88.0254 16.368C87.8014 16.944 87.4254 17.392 86.8974 17.712C86.3694 18.032 85.7374 18.192 85.0014 18.192C84.1854 18.192 83.4494 18.032 82.7934 17.712C82.1374 17.376 81.6174 16.92 81.2334 16.344C80.8654 15.752 80.6814 15.088 80.6814 14.352C80.6814 13.504 80.8974 12.832 81.3294 12.336C81.7774 11.824 82.4814 11.456 83.4414 11.232C84.4014 11.008 85.6974 10.896 87.3294 10.896H87.9774V10.608C87.9774 10.048 87.8494 9.64797 87.5934 9.40797C87.3374 9.15197 86.9054 9.02397 86.2974 9.02397C85.6414 9.02397 84.6814 9.24797 83.4174 9.69597C83.0494 9.82397 82.7374 9.88797 82.4814 9.88797C82.0814 9.88797 81.7614 9.74397 81.5214 9.45597C81.2814 9.16797 81.1614 8.79197 81.1614 8.32797C81.1614 7.97597 81.2334 7.68797 81.3774 7.46397C81.5214 7.23997 81.7534 7.03997 82.0734 6.86397C82.6334 6.57597 83.3374 6.34397 84.1854 6.16797C85.0334 5.99197 85.8654 5.90397 86.6814 5.90397ZM86.0094 15.336C86.5854 15.336 87.0574 15.136 87.4254 14.736C87.7934 14.32 87.9774 13.792 87.9774 13.152V12.864H87.5934C86.5694 12.864 85.8414 12.96 85.4094 13.152C84.9774 13.328 84.7614 13.632 84.7614 14.064C84.7614 14.432 84.8734 14.736 85.0974 14.976C85.3374 15.216 85.6414 15.336 86.0094 15.336Z" fill="#FF5678"/>
<path d="M102.372 5.90397C103.78 5.90397 104.828 6.32797 105.516 7.17597C106.204 8.00797 106.548 9.27997 106.548 10.992V16.176C106.548 16.784 106.356 17.264 105.972 17.616C105.588 17.968 105.068 18.144 104.412 18.144C103.756 18.144 103.236 17.968 102.852 17.616C102.468 17.264 102.276 16.784 102.276 16.176V11.184C102.276 10.48 102.148 9.96797 101.892 9.64797C101.652 9.32797 101.284 9.16797 100.788 9.16797C100.148 9.16797 99.6356 9.37597 99.2516 9.79197C98.8836 10.192 98.6996 10.736 98.6996 11.424V16.176C98.6996 16.784 98.5076 17.264 98.1236 17.616C97.7396 17.968 97.2196 18.144 96.5636 18.144C95.9076 18.144 95.3876 17.968 95.0036 17.616C94.6196 17.264 94.4276 16.784 94.4276 16.176V7.87197C94.4276 7.31197 94.6276 6.85597 95.0276 6.50397C95.4276 6.13597 95.9476 5.95197 96.5876 5.95197C97.1956 5.95197 97.6756 6.11997 98.0276 6.45597C98.3956 6.79197 98.5796 7.23197 98.5796 7.77597C98.9956 7.16797 99.5316 6.70397 100.188 6.38397C100.844 6.06397 101.572 5.90397 102.372 5.90397Z" fill="#FF5678"/>
<path d="M131.138 0.959969C131.746 0.959969 132.242 1.15997 132.626 1.55997C133.01 1.95997 133.202 2.47997 133.202 3.11997V16.176C133.202 16.784 133.026 17.264 132.674 17.616C132.322 17.968 131.858 18.144 131.282 18.144C130.722 18.144 130.258 17.968 129.89 17.616C129.538 17.264 129.362 16.784 129.362 16.176V9.11997L126.626 14.16C126.354 14.672 126.066 15.04 125.762 15.264C125.458 15.472 125.098 15.576 124.682 15.576C124.266 15.576 123.906 15.472 123.602 15.264C123.298 15.04 123.01 14.672 122.738 14.16L120.026 9.26397V16.176C120.026 16.768 119.842 17.248 119.474 17.616C119.122 17.968 118.658 18.144 118.082 18.144C117.522 18.144 117.058 17.968 116.69 17.616C116.338 17.264 116.162 16.784 116.162 16.176V3.11997C116.162 2.47997 116.354 1.95997 116.738 1.55997C117.138 1.15997 117.642 0.959969 118.25 0.959969C118.682 0.959969 119.074 1.08797 119.426 1.34397C119.778 1.58397 120.074 1.93597 120.314 2.39997L124.73 10.704L129.122 2.39997C129.618 1.43997 130.29 0.959969 131.138 0.959969Z" fill="#FF5678"/>
<path d="M141.525 5.90397C143.349 5.90397 144.693 6.34397 145.557 7.22397C146.437 8.08797 146.877 9.40797 146.877 11.184V16.2C146.877 16.808 146.693 17.288 146.325 17.64C145.973 17.976 145.477 18.144 144.837 18.144C144.277 18.144 143.813 17.984 143.445 17.664C143.093 17.344 142.901 16.912 142.869 16.368C142.645 16.944 142.269 17.392 141.741 17.712C141.213 18.032 140.581 18.192 139.845 18.192C139.029 18.192 138.293 18.032 137.637 17.712C136.981 17.376 136.461 16.92 136.077 16.344C135.709 15.752 135.525 15.088 135.525 14.352C135.525 13.504 135.741 12.832 136.173 12.336C136.621 11.824 137.325 11.456 138.285 11.232C139.245 11.008 140.541 10.896 142.173 10.896H142.821V10.608C142.821 10.048 142.693 9.64797 142.437 9.40797C142.181 9.15197 141.749 9.02397 141.141 9.02397C140.485 9.02397 139.525 9.24797 138.261 9.69597C137.893 9.82397 137.581 9.88797 137.325 9.88797C136.925 9.88797 136.605 9.74397 136.365 9.45597C136.125 9.16797 136.005 8.79197 136.005 8.32797C136.005 7.97597 136.077 7.68797 136.221 7.46397C136.365 7.23997 136.597 7.03997 136.917 6.86397C137.477 6.57597 138.181 6.34397 139.029 6.16797C139.877 5.99197 140.709 5.90397 141.525 5.90397ZM140.853 15.336C141.429 15.336 141.901 15.136 142.269 14.736C142.637 14.32 142.821 13.792 142.821 13.152V12.864H142.437C141.413 12.864 140.685 12.96 140.253 13.152C139.821 13.328 139.605 13.632 139.605 14.064C139.605 14.432 139.717 14.736 139.941 14.976C140.181 15.216 140.485 15.336 140.853 15.336Z" fill="#FF5678"/>
<path d="M154.959 18.192C153.039 18.192 151.519 17.648 150.399 16.56C149.279 15.472 148.719 13.992 148.719 12.12C148.719 10.888 148.991 9.79997 149.535 8.85597C150.079 7.91197 150.839 7.18397 151.815 6.67197C152.807 6.15997 153.935 5.90397 155.199 5.90397C155.871 5.90397 156.543 5.99197 157.215 6.16797C157.887 6.34397 158.479 6.59197 158.991 6.91197C159.487 7.21597 159.735 7.67997 159.735 8.30397C159.735 8.79997 159.615 9.20797 159.375 9.52797C159.151 9.83197 158.855 9.98397 158.487 9.98397C158.247 9.98397 158.015 9.95197 157.791 9.88797C157.567 9.80797 157.319 9.69597 157.047 9.55197C156.727 9.40797 156.455 9.30397 156.231 9.23997C156.007 9.15997 155.759 9.11997 155.487 9.11997C153.903 9.11997 153.111 10.088 153.111 12.024C153.111 12.984 153.311 13.72 153.711 14.232C154.127 14.728 154.719 14.976 155.487 14.976C155.759 14.976 156.007 14.944 156.231 14.88C156.471 14.8 156.735 14.688 157.023 14.544C157.343 14.4 157.599 14.296 157.791 14.232C157.999 14.152 158.223 14.112 158.463 14.112C158.831 14.112 159.127 14.272 159.351 14.592C159.591 14.896 159.711 15.296 159.711 15.792C159.711 16.096 159.647 16.376 159.519 16.632C159.391 16.872 159.215 17.056 158.991 17.184C157.887 17.856 156.543 18.192 154.959 18.192Z" fill="#FF5678"/>
<path d="M169.311 5.90397C170.687 5.90397 171.711 6.32797 172.383 7.17597C173.055 8.00797 173.391 9.27997 173.391 10.992V16.176C173.391 16.784 173.199 17.264 172.815 17.616C172.431 17.968 171.911 18.144 171.255 18.144C170.599 18.144 170.079 17.968 169.695 17.616C169.311 17.264 169.119 16.784 169.119 16.176V10.896C169.119 9.74397 168.623 9.16797 167.631 9.16797C166.991 9.16797 166.479 9.37597 166.095 9.79197C165.727 10.192 165.543 10.736 165.543 11.424V16.176C165.543 16.784 165.351 17.264 164.967 17.616C164.583 17.968 164.063 18.144 163.407 18.144C162.751 18.144 162.231 17.968 161.847 17.616C161.463 17.264 161.271 16.784 161.271 16.176V2.87997C161.271 2.31997 161.471 1.86397 161.871 1.51197C162.271 1.14397 162.799 0.959969 163.455 0.959969C164.079 0.959969 164.583 1.12797 164.967 1.46397C165.351 1.79997 165.543 2.24797 165.543 2.80797V7.60797C165.975 7.04797 166.511 6.62397 167.151 6.33597C167.791 6.04797 168.511 5.90397 169.311 5.90397Z" fill="#FF5678"/>
<path d="M177.939 18.144C177.331 18.144 176.819 17.984 176.403 17.664C176.003 17.328 175.803 16.832 175.803 16.176V7.91997C175.803 7.26397 176.003 6.77597 176.403 6.45597C176.819 6.11997 177.331 5.95197 177.939 5.95197C178.547 5.95197 179.051 6.11997 179.451 6.45597C179.867 6.77597 180.075 7.26397 180.075 7.91997V16.176C180.075 16.832 179.867 17.328 179.451 17.664C179.051 17.984 178.547 18.144 177.939 18.144ZM177.939 4.27197C177.219 4.27197 176.643 4.08797 176.211 3.71997C175.795 3.33597 175.587 2.83197 175.587 2.20797C175.587 1.58397 175.795 1.08797 176.211 0.719969C176.643 0.351969 177.219 0.167969 177.939 0.167969C178.643 0.167969 179.211 0.351969 179.643 0.719969C180.075 1.08797 180.291 1.58397 180.291 2.20797C180.291 2.83197 180.075 3.33597 179.643 3.71997C179.227 4.08797 178.659 4.27197 177.939 4.27197Z" fill="#FF5678"/>
<path d="M190.497 5.90397C191.905 5.90397 192.953 6.32797 193.641 7.17597C194.329 8.00797 194.673 9.27997 194.673 10.992V16.176C194.673 16.784 194.481 17.264 194.097 17.616C193.713 17.968 193.193 18.144 192.537 18.144C191.881 18.144 191.361 17.968 190.977 17.616C190.593 17.264 190.401 16.784 190.401 16.176V11.184C190.401 10.48 190.273 9.96797 190.017 9.64797C189.777 9.32797 189.409 9.16797 188.913 9.16797C188.273 9.16797 187.761 9.37597 187.377 9.79197C187.009 10.192 186.825 10.736 186.825 11.424V16.176C186.825 16.784 186.633 17.264 186.249 17.616C185.865 17.968 185.345 18.144 184.689 18.144C184.033 18.144 183.513 17.968 183.129 17.616C182.745 17.264 182.553 16.784 182.553 16.176V7.87197C182.553 7.31197 182.753 6.85597 183.153 6.50397C183.553 6.13597 184.073 5.95197 184.713 5.95197C185.321 5.95197 185.801 6.11997 186.153 6.45597C186.521 6.79197 186.705 7.23197 186.705 7.77597C187.121 7.16797 187.657 6.70397 188.313 6.38397C188.969 6.06397 189.697 5.90397 190.497 5.90397Z" fill="#FF5678"/>
<path d="M206.684 14.208C207.052 14.208 207.348 14.352 207.572 14.64C207.812 14.928 207.932 15.304 207.932 15.768C207.932 16.408 207.62 16.896 206.996 17.232C206.452 17.504 205.804 17.736 205.052 17.928C204.316 18.104 203.636 18.192 203.012 18.192C201.7 18.192 200.556 17.944 199.58 17.448C198.604 16.952 197.852 16.24 197.324 15.312C196.796 14.384 196.532 13.296 196.532 12.048C196.532 10.864 196.78 9.80797 197.276 8.87997C197.788 7.93597 198.492 7.20797 199.388 6.69597C200.3 6.16797 201.324 5.90397 202.46 5.90397C203.564 5.90397 204.532 6.14397 205.364 6.62397C206.196 7.10397 206.836 7.78397 207.284 8.66397C207.748 9.54397 207.98 10.576 207.98 11.76C207.98 12.128 207.892 12.416 207.716 12.624C207.556 12.816 207.316 12.912 206.996 12.912H200.66C200.772 13.68 201.02 14.232 201.404 14.568C201.788 14.904 202.356 15.072 203.108 15.072C203.508 15.072 203.876 15.032 204.212 14.952C204.548 14.856 204.924 14.728 205.34 14.568C205.58 14.472 205.812 14.392 206.036 14.328C206.276 14.248 206.492 14.208 206.684 14.208ZM202.58 8.78397C202.02 8.78397 201.572 8.96797 201.236 9.33597C200.9 9.68797 200.7 10.208 200.636 10.896H204.404C204.308 9.48797 203.7 8.78397 202.58 8.78397Z" fill="#FF5678"/>
</svg>
